#!OML:ASF H:\Terrain\Patient Classification 1\Terrain2\Thursday\justin.ASF
:FULLY-SPECIFIED
:DEGREES
3130
root -10.3271 17.1801 -22.411 1451.12 -55.4151 -729.735
lowerback 2.99463 0.708565 5.2802
upperback 0.797399 1.07911 4.53487
thorax -0.847346 0.501933 1.66858
lowerneck -14.1375 1.79075 -5.49668
upperneck 30.3188 4.62161 -2.95926
head 12.3529 0.869227 0.45806
rclavicle -5.65542e-014 1.90833e-014
rhumerus -31.6186 -7.14885 -78.3623
rradius 28.5105
rwrist -12.0238
rhand -21.5411 12.2415
rfingers 7.12502
rthumb 4.8519 -17.683
lclavicle -5.65542e-014 1.90833e-014
lhumerus -34.791 -2.63213 89.2454
lradius 38.799
lwrist 7.61384
lhand -20.4765 22.802
lfingers 7.12502
lthumb 5.87974 52.7004
rfemur -11.3628 -14.4368 32.4533
rtibia 28.7512
rfoot -16.7392 -18.4461
rtoes 9.37832
lfemur -10.5647 13.4852 -10.2526
ltibia 36.4369
lfoot -19.6044 5.55118
ltoes -4.93554
3131
root -10.3248 17.1754 -22.3991 1451.55 -54.6961 -730.405
lowerback 2.97633 0.666563 5.63205
upperback 0.811696 1.02702 4.7477
thorax -0.819954 0.473368 1.69554
lowerneck -14.3973 1.90094 -5.4596
upperneck 30.6008 4.84638 -3.06589
head 12.5256 0.942977 0.447394
rclavicle 5.86415e-015 3.18055e-014
rhumerus -31.5039 -6.56657 -78.3481
rradius 28.5418
rwrist -12.3017
rhand -23.5926 11.6369
rfingers 7.12502
rthumb 2.87084 -18.3235
lclavicle 5.86415e-015 3.18055e-014
lhumerus -34.903 -2.16178 89.147
lradius 38.7073
lwrist 7.76449
lhand -20.2684 22.1886
lfingers 7.12502
lthumb 6.0807 52.0814
rfemur -11.3549 -14.4904 32.9221
rtibia 29.0574
rfoot -17.4494 -18.5574
rtoes 11.9216
lfemur -10.612 12.9066 -9.65779
ltibia 35.8161
lfoot -19.8112 4.87272
ltoes 3.25479
3132
root -10.3169 17.164 -22.3839 1451.08 -53.923 -729.996
lowerback 2.93475 0.744974 5.63466
upperback 0.847926 1.1283 4.58639
thorax -0.754909 0.527479 1.52437
lowerneck -14.6356 1.85461 -5.26872
upperneck 30.7908 4.7411 -2.98231
head 12.6547 0.921689 0.435594
rclavicle 6.26172e-015 1.11319e-014
rhumerus -31.537 -6.64746 -78.3004
rradius 28.5809
rwrist -12.1639
rhand -22.4285 12.1525
rfingers 7.12502
rthumb 3.99503 -17.7898
lclavicle 6.26172e-015 1.11319e-014
lhumerus -35.0204 -2.33511 89.0787
lradius 38.8893
lwrist 8.09464
lhand -20.3353 22.7336
lfingers 7.12502
lthumb 6.01614 52.6281
rfemur -11.5244 -14.5548 32.7109
rtibia 29.5571
rfoot -18.0219 -18.8552
rtoes 13.8776
lfemur -10.4971 12.6755 -9.90855
ltibia 35.0224
lfoot -19.5649 5.17252
ltoes 2.86393
3133
root -10.3033 17.1738 -22.3568 1449.96 -52.8398 -728.744
lowerback 2.74038 0.68623 5.39848
upperback 0.881316 1.0305 4.2818
thorax -0.611998 0.485747 1.34655
lowerneck -14.5509 1.88305 -5.13235
upperneck 30.7335 4.75513 -3.01816
head 12.6166 0.94673 0.400538
rclavicle 9.91935e-014 5.56597e-015
rhumerus -31.4141 -6.79091 -78.1958
rradius 28.4912
rwrist -11.8922
rhand -20.5154 12.6765
rfingers 7.12502
rthumb 5.8422 -17.2229
lclavicle 9.91935e-014 5.56597e-015
lhumerus -35.1691 -2.30329 89.1075
lradius 38.9619
lwrist 7.8053
lhand -20.7336 24.0416
lfingers 7.12502
lthumb 5.63159 53.9467
rfemur -11.7427 -14.844 31.9645
rtibia 29.9979
rfoot -18.2789 -19.3918
rtoes 14.1434
lfemur -10.0475 12.0071 -10.7603
ltibia 34.1815
lfoot -19.9094 5.53556
ltoes -0.614031
3134
root -10.279 17.1385 -22.3194 1449.38 -51.6274 -728.103
lowerback 2.51399 0.577534 5.66183
upperback 0.893232 0.874859 4.05333
thorax -0.467491 0.413173 0.971702
lowerneck -14.2798 1.99948 -5.09087
upperneck 30.5156 4.88466 -3.00627
head 12.4685 1.02831 0.414102
rclavicle -3.65764e-014 -1.51076e-014
rhumerus -31.2774 -6.76785 -78.2158
rradius 28.5456
rwrist -12.4705
rhand -19.8567 12.5107
rfingers 7.12502
rthumb 6.47816 -17.3702
lclavicle -3.65764e-014 -1.51076e-014
lhumerus -35.0822 -2.01976 88.8867
lradius 38.6234
lwrist 7.66502
lhand -19.4118 24.0192
lfingers 7.12502
lthumb 6.90762 53.8865
rfemur -12.0744 -15.3718 31.6313
rtibia 30.4723
rfoot -17.9858 -20.1355
rtoes 12.6178
lfemur -10.4109 10.3978 -11.1971
ltibia 33.3987
lfoot -19.7997 5.76285
ltoes 1.51459
3135
root -10.2743 17.1368 -22.3078 1449.33 -50.93 -728.497
lowerback 2.83449 0.743585 5.78911
upperback 0.86688 1.12753 4.26818
thorax -0.669876 0.533251 1.11128
lowerneck -13.8732 1.96306 -5.57433
upperneck 30.2932 4.8327 -2.70487
head 12.2723 1.00941 0.5975
rclavicle 7.81224e-014 -7.15625e-015
rhumerus -31.4133 -6.79821 -77.7528
rradius 28.5341
rwrist -13.2533
rhand -19.5852 12.7457
rfingers 7.12502
rthumb 6.74028 -17.127
lclavicle 7.81224e-014 -7.15625e-015
lhumerus -35.0679 -1.55822 88.8231
lradius 38.2245
lwrist 7.42182
lhand -17.2041 23.4181
lfingers 7.12502
lthumb 9.0384 53.2045
rfemur -11.8998 -15.2742 31.8916
rtibia 30.8732
rfoot -18.1064 -20.8409
rtoes 12.0915
lfemur -9.65855 10.8668 -10.8767
ltibia 32.8171
lfoot -19.6459 5.75928
ltoes -2.84543
